<svg id="visual" viewBox="0 0 900 600" width="900" height="600" xmlns="http://www.w3.org/2000/svg" xmlns:xlink="http://www.w3.org/1999/xlink" version="1.1"><rect x="0" y="0" width="900" height="600" fill="#715DF2"></rect><path d="M0 422L9.3 420.7C18.7 419.3 37.3 416.7 56.2 425.8C75 435 94 456 112.8 467.3C131.7 478.7 150.3 480.3 169 467.8C187.7 455.3 206.3 428.7 225 421.5C243.7 414.3 262.3 426.7 281.2 430.5C300 434.3 319 429.7 337.8 432C356.7 434.3 375.3 443.7 394 440.2C412.7 436.7 431.3 420.3 450 412.7C468.7 405 487.3 406 506.2 411.5C525 417 544 427 562.8 429.8C581.7 432.7 600.3 428.3 619 427.7C637.7 427 656.3 430 675 438.2C693.7 446.3 712.3 459.7 731.2 456.3C750 453 769 433 787.8 426.3C806.7 419.7 825.3 426.3 844 437.3C862.7 448.3 881.3 463.7 890.7 471.3L900 479L900 601L890.7 601C881.3 601 862.7 601 844 601C825.3 601 806.7 601 787.8 601C769 601 750 601 731.2 601C712.3 601 693.7 601 675 601C656.3 601 637.7 601 619 601C600.3 601 581.7 601 562.8 601C544 601 525 601 506.2 601C487.3 601 468.7 601 450 601C431.3 601 412.7 601 394 601C375.3 601 356.7 601 337.8 601C319 601 300 601 281.2 601C262.3 601 243.7 601 225 601C206.3 601 187.7 601 169 601C150.3 601 131.7 601 112.8 601C94 601 75 601 56.2 601C37.3 601 18.7 601 9.3 601L0 601Z" fill="#f7caca"></path><path d="M0 462L9.3 465.5C18.7 469 37.3 476 56.2 483.3C75 490.7 94 498.3 112.8 496.7C131.7 495 150.3 484 169 472C187.7 460 206.3 447 225 450C243.7 453 262.3 472 281.2 479.3C300 486.7 319 482.3 337.8 478.8C356.7 475.3 375.3 472.7 394 468.7C412.7 464.7 431.3 459.3 450 464C468.7 468.7 487.3 483.3 506.2 487.7C525 492 544 486 562.8 477.3C581.7 468.7 600.3 457.3 619 459.7C637.7 462 656.3 478 675 479.8C693.7 481.7 712.3 469.3 731.2 463.2C750 457 769 457 787.8 460C806.7 463 825.3 469 844 477.2C862.7 485.3 881.3 495.7 890.7 500.8L900 506L900 601L890.7 601C881.3 601 862.7 601 844 601C825.3 601 806.7 601 787.8 601C769 601 750 601 731.2 601C712.3 601 693.7 601 675 601C656.3 601 637.7 601 619 601C600.3 601 581.7 601 562.8 601C544 601 525 601 506.2 601C487.3 601 468.7 601 450 601C431.3 601 412.7 601 394 601C375.3 601 356.7 601 337.8 601C319 601 300 601 281.2 601C262.3 601 243.7 601 225 601C206.3 601 187.7 601 169 601C150.3 601 131.7 601 112.8 601C94 601 75 601 56.2 601C37.3 601 18.7 601 9.3 601L0 601Z" fill="#ff9d98"></path><path d="M0 508L9.3 504.8C18.7 501.7 37.3 495.3 56.2 496.2C75 497 94 505 112.8 507C131.7 509 150.3 505 169 500.8C187.7 496.7 206.3 492.3 225 488.5C243.7 484.7 262.3 481.3 281.2 485.3C300 489.3 319 500.7 337.8 505.8C356.7 511 375.3 510 394 507C412.7 504 431.3 499 450 490.8C468.7 482.7 487.3 471.3 506.2 467C525 462.7 544 465.3 562.8 473C581.7 480.7 600.3 493.3 619 498.5C637.7 503.7 656.3 501.3 675 495.8C693.7 490.3 712.3 481.7 731.2 483.5C750 485.3 769 497.7 787.8 496C806.7 494.3 825.3 478.7 844 476C862.7 473.3 881.3 483.7 890.7 488.8L900 494L900 601L890.7 601C881.3 601 862.7 601 844 601C825.3 601 806.7 601 787.8 601C769 601 750 601 731.2 601C712.3 601 693.7 601 675 601C656.3 601 637.7 601 619 601C600.3 601 581.7 601 562.8 601C544 601 525 601 506.2 601C487.3 601 468.7 601 450 601C431.3 601 412.7 601 394 601C375.3 601 356.7 601 337.8 601C319 601 300 601 281.2 601C262.3 601 243.7 601 225 601C206.3 601 187.7 601 169 601C150.3 601 131.7 601 112.8 601C94 601 75 601 56.2 601C37.3 601 18.7 601 9.3 601L0 601Z" fill="#ff6f61"></path><path d="M0 538L9.3 539C18.7 540 37.3 542 56.2 540.2C75 538.3 94 532.7 112.8 525C131.7 517.3 150.3 507.7 169 510C187.7 512.3 206.3 526.7 225 527C243.7 527.3 262.3 513.7 281.2 513C300 512.3 319 524.7 337.8 529C356.7 533.3 375.3 529.7 394 529.7C412.7 529.7 431.3 533.3 450 534.8C468.7 536.3 487.3 535.7 506.2 531.8C525 528 544 521 562.8 516.5C581.7 512 600.3 510 619 506.3C637.7 502.7 656.3 497.3 675 501.7C693.7 506 712.3 520 731.2 527.2C750 534.3 769 534.7 787.8 527.5C806.7 520.3 825.3 505.7 844 506.5C862.7 507.3 881.3 523.7 890.7 531.8L900 540L900 601L890.7 601C881.3 601 862.7 601 844 601C825.3 601 806.7 601 787.8 601C769 601 750 601 731.2 601C712.3 601 693.7 601 675 601C656.3 601 637.7 601 619 601C600.3 601 581.7 601 562.8 601C544 601 525 601 506.2 601C487.3 601 468.7 601 450 601C431.3 601 412.7 601 394 601C375.3 601 356.7 601 337.8 601C319 601 300 601 281.2 601C262.3 601 243.7 601 225 601C206.3 601 187.7 601 169 601C150.3 601 131.7 601 112.8 601C94 601 75 601 56.2 601C37.3 601 18.7 601 9.3 601L0 601Z" fill="#ff6f61"></path><path d="M0 529L9.3 528.5C18.7 528 37.3 527 56.2 531.5C75 536 94 546 112.8 551.5C131.7 557 150.3 558 169 556.3C187.7 554.7 206.3 550.3 225 549.3C243.7 548.3 262.3 550.7 281.2 552.2C300 553.7 319 554.3 337.8 550.5C356.7 546.7 375.3 538.3 394 539C412.7 539.7 431.3 549.3 450 549.5C468.7 549.7 487.3 540.3 506.2 538.5C525 536.7 544 542.3 562.8 547C581.7 551.7 600.3 555.3 619 551.2C637.7 547 656.3 535 675 530.7C693.7 526.3 712.3 529.7 731.2 535.2C750 540.7 769 548.3 787.8 550.3C806.7 552.3 825.3 548.7 844 546.5C862.7 544.3 881.3 543.7 890.7 543.3L900 543L900 601L890.7 601C881.3 601 862.7 601 844 601C825.3 601 806.7 601 787.8 601C769 601 750 601 731.2 601C712.3 601 693.7 601 675 601C656.3 601 637.7 601 619 601C600.3 601 581.7 601 562.8 601C544 601 525 601 506.2 601C487.3 601 468.7 601 450 601C431.3 601 412.7 601 394 601C375.3 601 356.7 601 337.8 601C319 601 300 601 281.2 601C262.3 601 243.7 601 225 601C206.3 601 187.7 601 169 601C150.3 601 131.7 601 112.8 601C94 601 75 601 56.2 601C37.3 601 18.7 601 9.3 601L0 601Z" fill="#ff9d98"></path><path d="M0 566L9.3 563.7C18.7 561.3 37.3 556.7 56.2 554C75 551.3 94 550.7 112.8 552C131.7 553.3 150.3 556.7 169 560.8C187.7 565 206.3 570 225 568.7C243.7 567.3 262.3 559.7 281.2 558.8C300 558 319 564 337.8 564.5C356.7 565 375.3 560 394 559.2C412.7 558.3 431.3 561.7 450 563.5C468.7 565.3 487.3 565.7 506.2 563.2C525 560.7 544 555.3 562.8 556.2C581.7 557 600.3 564 619 569.3C637.7 574.7 656.3 578.3 675 576.5C693.7 574.7 712.3 567.3 731.2 562.7C750 558 769 556 787.8 558.8C806.7 561.7 825.3 569.3 844 573.7C862.7 578 881.3 579 890.7 579.5L900 580L900 601L890.7 601C881.3 601 862.7 601 844 601C825.3 601 806.7 601 787.8 601C769 601 750 601 731.2 601C712.3 601 693.7 601 675 601C656.3 601 637.7 601 619 601C600.3 601 581.7 601 562.8 601C544 601 525 601 506.2 601C487.3 601 468.7 601 450 601C431.3 601 412.7 601 394 601C375.3 601 356.7 601 337.8 601C319 601 300 601 281.2 601C262.3 601 243.7 601 225 601C206.3 601 187.7 601 169 601C150.3 601 131.7 601 112.8 601C94 601 75 601 56.2 601C37.3 601 18.7 601 9.3 601L0 601Z" fill="#f7caca"></path></svg>